<svg width="55" height="38" viewBox="0 0 64 47" fill="none" xmlns="http://www.w3.org/2000/svg">
<path d="M63.3261 8.96346C62.9643 8.5538 62.3822 8.30058 61.7499 8.27923L22.5463 6.94408C21.4215 6.90519 20.4815 7.59132 20.4334 8.47591C20.3856 9.36016 21.2526 10.1073 22.3721 10.1453L58.9215 11.3902L51.7351 29.1059H19.7548L13.9771 4.24985C13.8501 3.70508 13.3767 3.25061 12.7239 3.04823L3.26099 0.110954C2.21806 -0.21166 1.04119 0.193088 0.631596 1.01611C0.222711 1.83957 0.734842 2.76998 1.77721 3.0936L10.1912 5.70525L16.0709 30.9976C16.2481 31.7579 17.0868 32.3101 18.0657 32.3101H19.041L16.8139 37.198C16.6274 37.6074 16.7042 38.0621 17.0215 38.4178C17.3383 38.7736 17.8535 38.9853 18.4036 38.9853H19.9657C18.9977 39.8364 18.4036 40.9571 18.4036 42.1896C18.4036 44.84 21.1331 46.9961 24.4869 46.9961C27.8407 46.9961 30.5703 44.84 30.5703 42.1896C30.5703 40.9573 29.9761 39.8364 29.0083 38.9853H42.2715C41.3031 39.8364 40.7091 40.9571 40.7091 42.1896C40.7091 44.84 43.4379 46.9961 46.7924 46.9961C50.1471 46.9961 52.8757 44.84 52.8757 42.1896C52.8757 40.9573 52.2817 39.8364 51.314 38.9853H53.2138C54.1472 38.9853 54.9036 38.3875 54.9036 37.6502C54.9036 36.9127 54.1471 36.3151 53.2138 36.3151H20.8079L22.6327 32.3097H53.2136C54.0955 32.3097 54.8758 31.8596 55.1443 31.1967L63.5934 10.3685C63.7875 9.89309 63.6879 9.37335 63.3261 8.96346ZM24.4871 44.3263C22.9959 44.3263 21.7833 43.3683 21.7833 42.1902C21.7833 41.012 22.9959 40.0539 24.4871 40.0539C25.9782 40.0539 27.1907 41.012 27.1907 42.1902C27.1907 43.3683 25.9782 44.3263 24.4871 44.3263ZM46.7924 44.3263C45.3013 44.3263 44.0888 43.3683 44.0888 42.1902C44.0888 41.012 45.3013 40.0539 46.7924 40.0539C48.2835 40.0539 49.496 41.012 49.496 42.1902C49.496 43.3683 48.2835 44.3263 46.7924 44.3263Z" fill="#798191"/>
</svg>
